<mxfile host="app.diagrams.net" modified="2024-05-05T03:35:59.301Z" agent="Mozilla/5.0 (Windows NT 10.0; Win64; x64) AppleWebKit/537.36 (KHTML, like Gecko) Chrome/124.0.0.0 Safari/537.36" etag="xQw2Am3KT9oV6ae0gwcQ" version="24.3.1" type="github">
  <diagram name="Page-1" id="55a83fd1-7818-8e21-69c5-c3457e3827bb">
    <mxGraphModel dx="2049" dy="2754" grid="1" gridSize="10" guides="1" tooltips="1" connect="1" arrows="1" fold="1" page="1" pageScale="1" pageWidth="1100" pageHeight="850" background="none" math="0" shadow="0">
      <root>
        <mxCell id="0" />
        <mxCell id="1" parent="0" />
        <mxCell id="_pIg4PFCJZPSPQkPUvZz-1" value="" style="html=1;fillColor=#CCCCCC;strokeColor=#6881B3;gradientColor=none;gradientDirection=north;strokeWidth=2;shape=mxgraph.networks.comm_link_edge;html=1;labelBackgroundColor=none;endArrow=none;fontFamily=Verdana;fontSize=22;fontColor=#000000;" edge="1" parent="1">
          <mxGeometry width="100" height="100" relative="1" as="geometry">
            <mxPoint x="335" y="-210" as="sourcePoint" />
            <mxPoint x="565" y="-151.255" as="targetPoint" />
          </mxGeometry>
        </mxCell>
        <mxCell id="_pIg4PFCJZPSPQkPUvZz-2" value="" style="html=1;fillColor=#CCCCCC;strokeColor=#6881B3;gradientColor=none;gradientDirection=north;strokeWidth=2;shape=mxgraph.networks.comm_link_edge;html=1;labelBackgroundColor=none;endArrow=none;fontFamily=Verdana;fontSize=22;fontColor=#000000;fontStyle=1" edge="1" parent="1">
          <mxGeometry width="100" height="100" relative="1" as="geometry">
            <mxPoint x="310" y="-190" as="sourcePoint" />
            <mxPoint x="440" y="-49.995000000000005" as="targetPoint" />
          </mxGeometry>
        </mxCell>
        <mxCell id="_pIg4PFCJZPSPQkPUvZz-3" value="" style="html=1;fillColor=#CCCCCC;strokeColor=#6881B3;gradientColor=none;gradientDirection=north;strokeWidth=2;shape=mxgraph.networks.comm_link_edge;html=1;labelBackgroundColor=none;endArrow=none;fontFamily=Verdana;fontSize=22;fontColor=#000000;" edge="1" parent="1">
          <mxGeometry width="100" height="100" relative="1" as="geometry">
            <mxPoint x="820" y="-40" as="sourcePoint" />
            <mxPoint x="1000" y="-120" as="targetPoint" />
          </mxGeometry>
        </mxCell>
        <mxCell id="_pIg4PFCJZPSPQkPUvZz-4" value="" style="html=1;fillColor=#CCCCCC;strokeColor=#6881B3;gradientColor=none;gradientDirection=north;strokeWidth=2;shape=mxgraph.networks.comm_link_edge;html=1;labelBackgroundColor=none;endArrow=none;fontFamily=Verdana;fontSize=22;fontColor=#000000;" edge="1" parent="1">
          <mxGeometry width="100" height="100" relative="1" as="geometry">
            <mxPoint x="470" y="-350" as="sourcePoint" />
            <mxPoint x="350" y="-240" as="targetPoint" />
          </mxGeometry>
        </mxCell>
        <mxCell id="_pIg4PFCJZPSPQkPUvZz-5" value="" style="html=1;outlineConnect=0;fillColor=#CCCCCC;strokeColor=#6881B3;gradientColor=none;gradientDirection=north;strokeWidth=2;shape=mxgraph.networks.cloud;fontColor=#ffffff;" vertex="1" parent="1">
          <mxGeometry x="560" y="-1340" width="340" height="150" as="geometry" />
        </mxCell>
        <mxCell id="_pIg4PFCJZPSPQkPUvZz-6" value="" style="endArrow=none;html=1;rounded=0;" edge="1" parent="1">
          <mxGeometry width="50" height="50" relative="1" as="geometry">
            <mxPoint x="260" y="90" as="sourcePoint" />
            <mxPoint x="560" y="-200" as="targetPoint" />
          </mxGeometry>
        </mxCell>
        <mxCell id="_pIg4PFCJZPSPQkPUvZz-7" value="" style="endArrow=none;html=1;rounded=0;" edge="1" parent="1">
          <mxGeometry width="50" height="50" relative="1" as="geometry">
            <mxPoint x="380" y="240" as="sourcePoint" />
            <mxPoint x="680" y="-50" as="targetPoint" />
          </mxGeometry>
        </mxCell>
        <mxCell id="_pIg4PFCJZPSPQkPUvZz-8" value="" style="endArrow=none;html=1;rounded=0;" edge="1" parent="1">
          <mxGeometry width="50" height="50" relative="1" as="geometry">
            <mxPoint x="560" y="-200" as="sourcePoint" />
            <mxPoint x="230" y="-550" as="targetPoint" />
          </mxGeometry>
        </mxCell>
        <mxCell id="_pIg4PFCJZPSPQkPUvZz-9" value="" style="endArrow=none;html=1;rounded=0;" edge="1" parent="1">
          <mxGeometry width="50" height="50" relative="1" as="geometry">
            <mxPoint x="690" y="-310" as="sourcePoint" />
            <mxPoint x="360" y="-660" as="targetPoint" />
          </mxGeometry>
        </mxCell>
        <mxCell id="_pIg4PFCJZPSPQkPUvZz-10" value="" style="endArrow=none;html=1;rounded=0;" edge="1" parent="1">
          <mxGeometry width="50" height="50" relative="1" as="geometry">
            <mxPoint x="690" y="-310" as="sourcePoint" />
            <mxPoint x="990" y="-600" as="targetPoint" />
          </mxGeometry>
        </mxCell>
        <mxCell id="_pIg4PFCJZPSPQkPUvZz-11" value="" style="endArrow=none;html=1;rounded=0;" edge="1" parent="1">
          <mxGeometry width="50" height="50" relative="1" as="geometry">
            <mxPoint x="830" y="-160" as="sourcePoint" />
            <mxPoint x="1130" y="-450" as="targetPoint" />
          </mxGeometry>
        </mxCell>
        <mxCell id="_pIg4PFCJZPSPQkPUvZz-12" value="" style="endArrow=none;html=1;rounded=0;" edge="1" parent="1">
          <mxGeometry width="50" height="50" relative="1" as="geometry">
            <mxPoint x="1005" y="300" as="sourcePoint" />
            <mxPoint x="675" y="-50" as="targetPoint" />
          </mxGeometry>
        </mxCell>
        <mxCell id="_pIg4PFCJZPSPQkPUvZz-13" value="" style="endArrow=none;html=1;rounded=0;" edge="1" parent="1">
          <mxGeometry width="50" height="50" relative="1" as="geometry">
            <mxPoint x="1160" y="190" as="sourcePoint" />
            <mxPoint x="830" y="-160" as="targetPoint" />
          </mxGeometry>
        </mxCell>
        <mxCell id="_pIg4PFCJZPSPQkPUvZz-14" value="" style="shape=actor;whiteSpace=wrap;html=1;" vertex="1" parent="1">
          <mxGeometry x="440" y="-70" width="40" height="60" as="geometry" />
        </mxCell>
        <mxCell id="_pIg4PFCJZPSPQkPUvZz-15" value="" style="shape=actor;whiteSpace=wrap;html=1;" vertex="1" parent="1">
          <mxGeometry x="560" y="-160" width="40" height="60" as="geometry" />
        </mxCell>
        <mxCell id="_pIg4PFCJZPSPQkPUvZz-16" value="" style="shape=actor;whiteSpace=wrap;html=1;" vertex="1" parent="1">
          <mxGeometry x="470" y="-425" width="40" height="60" as="geometry" />
        </mxCell>
        <mxCell id="_pIg4PFCJZPSPQkPUvZz-17" value="" style="shape=actor;whiteSpace=wrap;html=1;" vertex="1" parent="1">
          <mxGeometry x="760" y="-80" width="40" height="60" as="geometry" />
        </mxCell>
        <mxCell id="_pIg4PFCJZPSPQkPUvZz-18" value="" style="fontColor=#0066CC;verticalAlign=top;verticalLabelPosition=bottom;labelPosition=center;align=center;html=1;outlineConnect=0;fillColor=#CCCCCC;strokeColor=#6881B3;gradientColor=none;gradientDirection=north;strokeWidth=2;shape=mxgraph.networks.radio_tower;" vertex="1" parent="1">
          <mxGeometry x="523" y="-910" width="55" height="100" as="geometry" />
        </mxCell>
        <mxCell id="_pIg4PFCJZPSPQkPUvZz-19" value="" style="fontColor=#0066CC;verticalAlign=top;verticalLabelPosition=bottom;labelPosition=center;align=center;html=1;outlineConnect=0;fillColor=#CCCCCC;strokeColor=#6881B3;gradientColor=none;gradientDirection=north;strokeWidth=2;shape=mxgraph.networks.radio_tower;" vertex="1" parent="1">
          <mxGeometry x="700" y="-1000" width="55" height="100" as="geometry" />
        </mxCell>
        <mxCell id="_pIg4PFCJZPSPQkPUvZz-20" value="" style="fontColor=#0066CC;verticalAlign=top;verticalLabelPosition=bottom;labelPosition=center;align=center;html=1;outlineConnect=0;fillColor=#CCCCCC;strokeColor=#6881B3;gradientColor=none;gradientDirection=north;strokeWidth=2;shape=mxgraph.networks.radio_tower;" vertex="1" parent="1">
          <mxGeometry x="860" y="-899" width="55" height="100" as="geometry" />
        </mxCell>
        <mxCell id="_pIg4PFCJZPSPQkPUvZz-21" value="" style="fontColor=#0066CC;verticalAlign=top;verticalLabelPosition=bottom;labelPosition=center;align=center;html=1;outlineConnect=0;fillColor=#CCCCCC;strokeColor=#6881B3;gradientColor=none;gradientDirection=north;strokeWidth=2;shape=mxgraph.networks.radio_tower;" vertex="1" parent="1">
          <mxGeometry x="280" y="-310" width="55" height="100" as="geometry" />
        </mxCell>
        <mxCell id="_pIg4PFCJZPSPQkPUvZz-22" value="" style="fontColor=#0066CC;verticalAlign=top;verticalLabelPosition=bottom;labelPosition=center;align=center;html=1;outlineConnect=0;fillColor=#CCCCCC;strokeColor=#6881B3;gradientColor=none;gradientDirection=north;strokeWidth=2;shape=mxgraph.networks.radio_tower;" vertex="1" parent="1">
          <mxGeometry x="1020" y="-240" width="55" height="100" as="geometry" />
        </mxCell>
        <mxCell id="_pIg4PFCJZPSPQkPUvZz-23" value="" style="shape=partialRectangle;whiteSpace=wrap;html=1;bottom=0;right=0;fillColor=none;" vertex="1" parent="1">
          <mxGeometry x="150" y="-670" width="1080" height="1010" as="geometry" />
        </mxCell>
        <mxCell id="_pIg4PFCJZPSPQkPUvZz-24" value="" style="shape=partialRectangle;whiteSpace=wrap;html=1;bottom=1;right=1;left=1;top=0;fillColor=none;routingCenterX=-0.5;" vertex="1" parent="1">
          <mxGeometry x="150" y="-670" width="1080" height="1010" as="geometry" />
        </mxCell>
        <mxCell id="_pIg4PFCJZPSPQkPUvZz-25" value="" style="fontColor=#0066CC;verticalAlign=top;verticalLabelPosition=bottom;labelPosition=center;align=center;html=1;outlineConnect=0;fillColor=#CCCCCC;strokeColor=#6881B3;gradientColor=none;gradientDirection=north;strokeWidth=2;shape=mxgraph.networks.comm_link;" vertex="1" parent="1">
          <mxGeometry x="712.5" y="-890" width="30" height="100" as="geometry" />
        </mxCell>
        <mxCell id="_pIg4PFCJZPSPQkPUvZz-26" value="&lt;span style=&quot;font-size: 30px;&quot;&gt;WiFi&lt;/span&gt;" style="shape=ext;double=1;rounded=1;whiteSpace=wrap;html=1;" vertex="1" parent="1">
          <mxGeometry x="550" y="-770" width="310" height="100" as="geometry" />
        </mxCell>
        <mxCell id="_pIg4PFCJZPSPQkPUvZz-27" value="&lt;span style=&quot;font-size: 26px;&quot;&gt;Fog Nodes&lt;/span&gt;&lt;div&gt;&lt;span style=&quot;font-size: 26px;&quot;&gt;&lt;br&gt;&lt;/span&gt;&lt;/div&gt;" style="text;html=1;align=center;verticalAlign=middle;resizable=0;points=[];autosize=1;strokeColor=none;fillColor=none;" vertex="1" parent="1">
          <mxGeometry x="765" y="-990" width="150" height="80" as="geometry" />
        </mxCell>
        <mxCell id="_pIg4PFCJZPSPQkPUvZz-28" value="&lt;font style=&quot;font-size: 36px;&quot;&gt;Cloud Layer&lt;/font&gt;&lt;div&gt;&lt;font style=&quot;font-size: 36px;&quot;&gt;&lt;br&gt;&lt;/font&gt;&lt;/div&gt;" style="text;html=1;align=center;verticalAlign=middle;resizable=0;points=[];autosize=1;strokeColor=none;fillColor=none;" vertex="1" parent="1">
          <mxGeometry x="640" y="-1260" width="220" height="100" as="geometry" />
        </mxCell>
        <mxCell id="_pIg4PFCJZPSPQkPUvZz-29" value="" style="html=1;outlineConnect=0;fillColor=#CCCCCC;strokeColor=#6881B3;gradientColor=none;gradientDirection=north;strokeWidth=2;shape=mxgraph.networks.comm_link_edge;html=1;rounded=0;" edge="1" parent="1">
          <mxGeometry width="100" height="100" relative="1" as="geometry">
            <mxPoint x="720" y="-1010" as="sourcePoint" />
            <mxPoint x="740" y="-1190" as="targetPoint" />
            <Array as="points">
              <mxPoint x="810" y="-1070" />
            </Array>
          </mxGeometry>
        </mxCell>
        <mxCell id="_pIg4PFCJZPSPQkPUvZz-30" value="&lt;span style=&quot;font-size: 26px;&quot;&gt;Cellular&lt;/span&gt;" style="text;html=1;align=center;verticalAlign=middle;resizable=0;points=[];autosize=1;strokeColor=none;fillColor=none;" vertex="1" parent="1">
          <mxGeometry x="795" y="-1120" width="110" height="40" as="geometry" />
        </mxCell>
        <mxCell id="_pIg4PFCJZPSPQkPUvZz-31" value="&lt;font style=&quot;font-size: 21px;&quot;&gt;RSU&lt;/font&gt;" style="text;html=1;align=center;verticalAlign=middle;resizable=0;points=[];autosize=1;strokeColor=none;fillColor=none;" vertex="1" parent="1">
          <mxGeometry x="272.5" y="-365" width="70" height="40" as="geometry" />
        </mxCell>
        <mxCell id="_pIg4PFCJZPSPQkPUvZz-32" value="&lt;font style=&quot;font-size: 19px;&quot;&gt;ZigBee&lt;/font&gt;" style="text;html=1;align=center;verticalAlign=middle;resizable=0;points=[];autosize=1;strokeColor=none;fillColor=none;" vertex="1" parent="1">
          <mxGeometry x="290" y="-110" width="80" height="40" as="geometry" />
        </mxCell>
        <mxCell id="_pIg4PFCJZPSPQkPUvZz-33" value="&lt;font style=&quot;font-size: 18px;&quot;&gt;Vehicle&lt;/font&gt;" style="text;html=1;align=center;verticalAlign=middle;resizable=0;points=[];autosize=1;strokeColor=none;fillColor=none;" vertex="1" parent="1">
          <mxGeometry x="540" y="-100" width="80" height="40" as="geometry" />
        </mxCell>
        <mxCell id="_pIg4PFCJZPSPQkPUvZz-35" value="" style="html=1;fillColor=#CCCCCC;strokeColor=#6881B3;gradientColor=none;gradientDirection=north;strokeWidth=2;shape=mxgraph.networks.comm_link_edge;html=1;labelBackgroundColor=none;endArrow=none;fontFamily=Verdana;fontSize=22;fontColor=#000000;" edge="1" parent="1">
          <mxGeometry width="100" height="100" relative="1" as="geometry">
            <mxPoint x="480" y="-20" as="sourcePoint" />
            <mxPoint x="580" y="-80" as="targetPoint" />
          </mxGeometry>
        </mxCell>
        <mxCell id="_pIg4PFCJZPSPQkPUvZz-36" value="&lt;font style=&quot;font-size: 20px;&quot;&gt;V2V&lt;/font&gt;" style="text;html=1;align=center;verticalAlign=middle;resizable=0;points=[];autosize=1;strokeColor=none;fillColor=none;" vertex="1" parent="1">
          <mxGeometry x="530" y="-47" width="60" height="40" as="geometry" />
        </mxCell>
        <mxCell id="_pIg4PFCJZPSPQkPUvZz-37" value="&lt;span style=&quot;font-size: 22px;&quot;&gt;V2I&lt;/span&gt;" style="text;html=1;align=center;verticalAlign=middle;resizable=0;points=[];autosize=1;strokeColor=none;fillColor=none;" vertex="1" parent="1">
          <mxGeometry x="410" y="-257" width="60" height="40" as="geometry" />
        </mxCell>
      </root>
    </mxGraphModel>
  </diagram>
</mxfile>
